ffmpeg started on 2026-04-01 at 11:41:05
Report written to "D:\Convert\FFMetrics\reports\psnr_report-6.txt"
Log level: 32
Command line:
ffmpeg -hide_banner -nostdin -r 24000/1001 -i "F:\\Convert\\files\\[DC] Make Heroine ga Oosugiru - 07_Telegram_HEVC(273).mkv" -r 24000/1001 -i "F:\\Convert\\files\\[DC] Make Heroine ga Oosugiru - 07_Telegram.mp4" -lavfi "[0:v]settb=AVTB,setpts=PTS-STARTPTS,format=pix_fmts=yuv420p10le,fps=24000/1001,scale=1920:1080:flags=lanczos:param0=3:out_range=limited:out_color_matrix=bt709:out_chroma_loc=left,setsar=1/1,setdar=(1920/1080)*(1/1),colorspace=format=yuv420p10:range=tv:primaries=bt709:trc=bt709:space=bt709:fast=0[main];[1:v]settb=AVTB,setpts=PTS-STARTPTS,format=pix_fmts=yuv420p,fps=24000/1001,scale=1920:1080:flags=lanczos:param0=3:out_range=limited:out_color_matrix=bt709:out_chroma_loc=left,setsar=1/1,setdar=(1920/1080)*(1/1),colorspace=format=yuv420p:range=tv:primaries=bt709:trc=bt709:space=bt709:fast=0[ref];[main][ref]psnr=eof_action=endall:stats_file='D\\:/Convert/FFMetrics/logs/psnr_logfile-6.txt'" -f null -
Input #0, matroska,webm, from 'F:\Convert\files\[DC] Make Heroine ga Oosugiru - 07_Telegram_HEVC(273).mkv':
  Metadata:
    COMPATIBLE_BRANDS: isomiso2avc1mp41
    MAJOR_BRAND     : isom
    MINOR_VERSION   : 512
    ENCODER         : Lavf61.7.100
  Duration: 00:24:06.79, start: -0.021000, bitrate: 953 kb/s
  Stream #0:0: Video: hevc (Main 10), yuv420p10le(tv, bt709, progressive), 1920x1080 [SAR 1:1 DAR 16:9], 23.98 fps, 23.98 tbr, 1k tbn (default)
      Metadata:
        HANDLER_NAME    : VideoHandler
        VENDOR_ID       : [0][0][0][0]
        ENCODER         : Lavc61.19.100 libx265
        BPS             : 756133
        DURATION        : 00:24:06.569708333
        NUMBER_OF_FRAMES: 34683
        NUMBER_OF_BYTES : 136724859
        _STATISTICS_WRITING_APP: mkvpropedit v94.0 ('Initiate') 64-bit
        _STATISTICS_WRITING_DATE_UTC: 2026-03-30 12:40:00
        _STATISTICS_TAGS: BPS DURATION NUMBER_OF_FRAMES NUMBER_OF_BYTES
  Stream #0:1: Audio: aac (LC), 48000 Hz, stereo, fltp (default)
      Metadata:
        HANDLER_NAME    : SoundHandler
        VENDOR_ID       : [0][0][0][0]
        ENCODER         : Lavc61.19.100 aac
        BPS             : 193194
        DURATION        : 00:24:06.784000000
        NUMBER_OF_FRAMES: 67819
        NUMBER_OF_BYTES : 34938755
        _STATISTICS_WRITING_APP: mkvpropedit v94.0 ('Initiate') 64-bit
        _STATISTICS_WRITING_DATE_UTC: 2026-03-30 12:40:00
        _STATISTICS_TAGS: BPS DURATION NUMBER_OF_FRAMES NUMBER_OF_BYTES
Input #1, mov,mp4,m4a,3gp,3g2,mj2, from 'F:\Convert\files\[DC] Make Heroine ga Oosugiru - 07_Telegram.mp4':
  Metadata:
    major_brand     : isom
    minor_version   : 512
    compatible_brands: isomiso2avc1mp41
    encoder         : Lavf60.16.100
  Duration: 00:24:06.74, start: 0.000000, bitrate: 3764 kb/s
  Stream #1:0[0x1](und): Video: h264 (High) (avc1 / 0x31637661), yuv420p(tv, bt709, progressive), 1920x1080 [SAR 1:1 DAR 16:9], 3616 kb/s, 23.98 fps, 23.98 tbr, 24k tbn (default)
      Metadata:
        handler_name    : VideoHandler
        vendor_id       : [0][0][0][0]
        encoder         : Lavc60.31.102 h264_qsv
  Stream #1:1[0x2](und): Audio: aac (HE-AACv2) (mp4a / 0x6134706D), 48000 Hz, stereo, fltp, 144 kb/s (default)
      Metadata:
        handler_name    : SoundHandler
        vendor_id       : [0][0][0][0]
Stream mapping:
  Stream #0:0 (hevc) -> settb:default
  Stream #1:0 (h264) -> settb:default
  psnr:default -> Stream #0:0 (wrapped_avframe)
  Stream #0:1 -> #0:1 (aac (native) -> pcm_s16le (native))
Output #0, null, to 'pipe:':
  Metadata:
    COMPATIBLE_BRANDS: isomiso2avc1mp41
    MAJOR_BRAND     : isom
    MINOR_VERSION   : 512
    encoder         : Lavf61.7.100
  Stream #0:0: Video: wrapped_avframe, yuv420p10le(tv, bt709, progressive), 1920x1080 [SAR 1:1 DAR 16:9], q=2-31, 200 kb/s, 23.98 fps, 23.98 tbn
      Metadata:
        encoder         : Lavc61.19.100 wrapped_avframe
  Stream #0:1: Audio: pcm_s16le, 48000 Hz, stereo, s16, 1536 kb/s (default)
      Metadata:
        HANDLER_NAME    : SoundHandler
        VENDOR_ID       : [0][0][0][0]
        _STATISTICS_TAGS: BPS DURATION NUMBER_OF_FRAMES NUMBER_OF_BYTES
        BPS             : 193194
        DURATION        : 00:24:06.784000000
        NUMBER_OF_FRAMES: 67819
        NUMBER_OF_BYTES : 34938755
        _STATISTICS_WRITING_APP: mkvpropedit v94.0 ('Initiate') 64-bit
        _STATISTICS_WRITING_DATE_UTC: 2026-03-30 12:40:00
        encoder         : Lavc61.19.100 pcm_s16le
frame=  127 fps=0.0 q=-0.0 size=N/A time=00:00:05.29 bitrate=N/A speed=10.3x    frame=  324 fps=316 q=-0.0 size=N/A time=00:00:13.51 bitrate=N/A speed=13.2x    frame=  533 fps=343 q=-0.0 size=N/A time=00:00:22.23 bitrate=N/A speed=14.3x    frame=  734 fps=353 q=-0.0 size=N/A time=00:00:30.61 bitrate=N/A speed=14.7x    frame=  912 fps=352 q=-0.0 size=N/A time=00:00:38.03 bitrate=N/A speed=14.7x    frame= 1063 fps=341 q=-0.0 size=N/A time=00:00:44.33 bitrate=N/A speed=14.2x    frame= 1223 fps=336 q=-0.0 size=N/A time=00:00:51.00 bitrate=N/A speed=  14x    frame= 1389 fps=335 q=-0.0 size=N/A time=00:00:57.93 bitrate=N/A speed=  14x    frame= 1539 fps=330 q=-0.0 size=N/A time=00:01:04.18 bitrate=N/A speed=13.8x    frame= 1683 fps=325 q=-0.0 size=N/A time=00:01:10.19 bitrate=N/A speed=13.5x    frame= 1854 fps=325 q=-0.0 size=N/A time=00:01:17.32 bitrate=N/A speed=13.6x    frame= 2029 fps=327 q=-0.0 size=N/A time=00:01:24.62 bitrate=N/A speed=13.6x    frame= 2135 fps=317 q=-0.0 size=N/A time=00:01:29.04 bitrate=N/A speed=13.2x    frame= 2285 fps=315 q=-0.0 size=N/A time=00:01:35.30 bitrate=N/A speed=13.2x    frame= 2431 fps=313 q=-0.0 size=N/A time=00:01:41.39 bitrate=N/A speed=13.1x    frame= 2567 fps=310 q=-0.0 size=N/A time=00:01:47.06 bitrate=N/A speed=12.9x    frame= 2742 fps=312 q=-0.0 size=N/A time=00:01:54.36 bitrate=N/A speed=  13x    frame= 2910 fps=313 q=-0.0 size=N/A time=00:02:01.37 bitrate=N/A speed=  13x    frame= 3111 fps=316 q=-0.0 size=N/A time=00:02:09.75 bitrate=N/A speed=13.2x    frame= 3317 fps=321 q=-0.0 size=N/A time=00:02:18.34 bitrate=N/A speed=13.4x    frame= 3520 fps=324 q=-0.0 size=N/A time=00:02:26.81 bitrate=N/A speed=13.5x    frame= 3720 fps=327 q=-0.0 size=N/A time=00:02:35.15 bitrate=N/A speed=13.6x    frame= 3928 fps=331 q=-0.0 size=N/A time=00:02:43.83 bitrate=N/A speed=13.8x    frame= 4124 fps=332 q=-0.0 size=N/A time=00:02:52.00 bitrate=N/A speed=13.9x    frame= 4326 fps=335 q=-0.0 size=N/A time=00:03:00.43 bitrate=N/A speed=  14x    frame= 4524 fps=337 q=-0.0 size=N/A time=00:03:08.68 bitrate=N/A speed=14.1x    frame= 4728 fps=339 q=-0.0 size=N/A time=00:03:17.19 bitrate=N/A speed=14.1x    frame= 4924 fps=340 q=-0.0 size=N/A time=00:03:25.37 bitrate=N/A speed=14.2x    frame= 5124 fps=342 q=-0.0 size=N/A time=00:03:33.71 bitrate=N/A speed=14.3x    frame= 5325 fps=343 q=-0.0 size=N/A time=00:03:42.09 bitrate=N/A speed=14.3x    frame= 5517 fps=345 q=-0.0 size=N/A time=00:03:50.10 bitrate=N/A speed=14.4x    frame= 5712 fps=346 q=-0.0 size=N/A time=00:03:58.23 bitrate=N/A speed=14.4x    frame= 5919 fps=347 q=-0.0 size=N/A time=00:04:06.87 bitrate=N/A speed=14.5x    frame= 6117 fps=348 q=-0.0 size=N/A time=00:04:15.12 bitrate=N/A speed=14.5x    frame= 6320 fps=350 q=-0.0 size=N/A time=00:04:23.59 bitrate=N/A speed=14.6x    frame= 6521 fps=351 q=-0.0 size=N/A time=00:04:31.98 bitrate=N/A speed=14.6x    frame= 6711 fps=351 q=-0.0 size=N/A time=00:04:39.90 bitrate=N/A speed=14.6x    frame= 6915 fps=352 q=-0.0 size=N/A time=00:04:48.41 bitrate=N/A speed=14.7x    frame= 7107 fps=353 q=-0.0 size=N/A time=00:04:56.42 bitrate=N/A speed=14.7x    frame= 7300 fps=353 q=-0.0 size=N/A time=00:05:04.47 bitrate=N/A speed=14.7x    frame= 7497 fps=354 q=-0.0 size=N/A time=00:05:12.68 bitrate=N/A speed=14.8x    frame= 7685 fps=354 q=-0.0 size=N/A time=00:05:20.52 bitrate=N/A speed=14.8x    frame= 7873 fps=355 q=-0.0 size=N/A time=00:05:28.36 bitrate=N/A speed=14.8x    frame= 8076 fps=356 q=-0.0 size=N/A time=00:05:36.83 bitrate=N/A speed=14.8x    frame= 8273 fps=356 q=-0.0 size=N/A time=00:05:45.05 bitrate=N/A speed=14.8x    frame= 8473 fps=357 q=-0.0 size=N/A time=00:05:53.39 bitrate=N/A speed=14.9x    frame= 8660 fps=357 q=-0.0 size=N/A time=00:06:01.19 bitrate=N/A speed=14.9x    frame= 8873 fps=358 q=-0.0 size=N/A time=00:06:10.07 bitrate=N/A speed=14.9x    frame= 9062 fps=358 q=-0.0 size=N/A time=00:06:17.96 bitrate=N/A speed=14.9x    frame= 9262 fps=359 q=-0.0 size=N/A time=00:06:26.30 bitrate=N/A speed=  15x    frame= 9463 fps=359 q=-0.0 size=N/A time=00:06:34.68 bitrate=N/A speed=  15x    frame= 9660 fps=360 q=-0.0 size=N/A time=00:06:42.90 bitrate=N/A speed=  15x    frame= 9858 fps=360 q=-0.0 size=N/A time=00:06:51.16 bitrate=N/A speed=  15x    frame=10063 fps=361 q=-0.0 size=N/A time=00:06:59.71 bitrate=N/A speed=15.1x    frame=10251 fps=361 q=-0.0 size=N/A time=00:07:07.55 bitrate=N/A speed=15.1x    frame=10451 fps=362 q=-0.0 size=N/A time=00:07:15.89 bitrate=N/A speed=15.1x    frame=10647 fps=362 q=-0.0 size=N/A time=00:07:24.06 bitrate=N/A speed=15.1x    frame=10836 fps=362 q=-0.0 size=N/A time=00:07:31.95 bitrate=N/A speed=15.1x    frame=11026 fps=362 q=-0.0 size=N/A time=00:07:39.87 bitrate=N/A speed=15.1x    frame=11218 fps=362 q=-0.0 size=N/A time=00:07:47.88 bitrate=N/A speed=15.1x    frame=11415 fps=363 q=-0.0 size=N/A time=00:07:56.10 bitrate=N/A speed=15.1x    frame=11614 fps=363 q=-0.0 size=N/A time=00:08:04.40 bitrate=N/A speed=15.1x    frame=11816 fps=363 q=-0.0 size=N/A time=00:08:12.82 bitrate=N/A speed=15.2x    frame=12018 fps=364 q=-0.0 size=N/A time=00:08:21.25 bitrate=N/A speed=15.2x    frame=12222 fps=364 q=-0.0 size=N/A time=00:08:29.75 bitrate=N/A speed=15.2x    frame=12419 fps=365 q=-0.0 size=N/A time=00:08:37.97 bitrate=N/A speed=15.2x    frame=12614 fps=365 q=-0.0 size=N/A time=00:08:46.10 bitrate=N/A speed=15.2x    frame=12823 fps=365 q=-0.0 size=N/A time=00:08:54.82 bitrate=N/A speed=15.2x    frame=13021 fps=366 q=-0.0 size=N/A time=00:09:03.08 bitrate=N/A speed=15.3x    frame=13217 fps=366 q=-0.0 size=N/A time=00:09:11.25 bitrate=N/A speed=15.3x    frame=13411 fps=366 q=-0.0 size=N/A time=00:09:19.35 bitrate=N/A speed=15.3x    frame=13612 fps=366 q=-0.0 size=N/A time=00:09:27.73 bitrate=N/A speed=15.3x    frame=13807 fps=367 q=-0.0 size=N/A time=00:09:35.86 bitrate=N/A speed=15.3x    frame=13992 fps=366 q=-0.0 size=N/A time=00:09:43.58 bitrate=N/A speed=15.3x    frame=14179 fps=366 q=-0.0 size=N/A time=00:09:51.38 bitrate=N/A speed=15.3x    frame=14373 fps=367 q=-0.0 size=N/A time=00:09:59.47 bitrate=N/A speed=15.3x    frame=14569 fps=367 q=-0.0 size=N/A time=00:10:07.64 bitrate=N/A speed=15.3x    frame=14769 fps=367 q=-0.0 size=N/A time=00:10:15.99 bitrate=N/A speed=15.3x    frame=14961 fps=367 q=-0.0 size=N/A time=00:10:23.99 bitrate=N/A speed=15.3x    frame=15136 fps=367 q=-0.0 size=N/A time=00:10:31.29 bitrate=N/A speed=15.3x    frame=15329 fps=367 q=-0.0 size=N/A time=00:10:39.34 bitrate=N/A speed=15.3x    frame=15521 fps=367 q=-0.0 size=N/A time=00:10:47.35 bitrate=N/A speed=15.3x    frame=15721 fps=367 q=-0.0 size=N/A time=00:10:55.69 bitrate=N/A speed=15.3x    frame=15919 fps=367 q=-0.0 size=N/A time=00:11:03.95 bitrate=N/A speed=15.3x    frame=16120 fps=368 q=-0.0 size=N/A time=00:11:12.33 bitrate=N/A speed=15.3x    frame=16323 fps=368 q=-0.0 size=N/A time=00:11:20.80 bitrate=N/A speed=15.3x    frame=16516 fps=368 q=-0.0 size=N/A time=00:11:28.85 bitrate=N/A speed=15.3x    frame=16707 fps=368 q=-0.0 size=N/A time=00:11:36.82 bitrate=N/A speed=15.3x    frame=16905 fps=368 q=-0.0 size=N/A time=00:11:45.07 bitrate=N/A speed=15.4x    frame=17099 fps=368 q=-0.0 size=N/A time=00:11:53.17 bitrate=N/A speed=15.4x    frame=17295 fps=368 q=-0.0 size=N/A time=00:12:01.34 bitrate=N/A speed=15.4x    frame=17485 fps=368 q=-0.0 size=N/A time=00:12:09.27 bitrate=N/A speed=15.4x    frame=17677 fps=368 q=-0.0 size=N/A time=00:12:17.27 bitrate=N/A speed=15.4x    frame=17872 fps=369 q=-0.0 size=N/A time=00:12:25.41 bitrate=N/A speed=15.4x    frame=18073 fps=369 q=-0.0 size=N/A time=00:12:33.79 bitrate=N/A speed=15.4x    frame=18258 fps=369 q=-0.0 size=N/A time=00:12:41.51 bitrate=N/A speed=15.4x    frame=18439 fps=368 q=-0.0 size=N/A time=00:12:49.05 bitrate=N/A speed=15.4x    frame=18640 fps=369 q=-0.0 size=N/A time=00:12:57.44 bitrate=N/A speed=15.4x    frame=18832 fps=369 q=-0.0 size=N/A time=00:13:05.45 bitrate=N/A speed=15.4x    frame=19027 fps=369 q=-0.0 size=N/A time=00:13:13.58 bitrate=N/A speed=15.4x    frame=19231 fps=369 q=-0.0 size=N/A time=00:13:22.09 bitrate=N/A speed=15.4x    frame=19432 fps=369 q=-0.0 size=N/A time=00:13:30.47 bitrate=N/A speed=15.4x    frame=19631 fps=369 q=-0.0 size=N/A time=00:13:38.77 bitrate=N/A speed=15.4x    frame=19838 fps=370 q=-0.0 size=N/A time=00:13:47.40 bitrate=N/A speed=15.4x    frame=20038 fps=370 q=-0.0 size=N/A time=00:13:55.75 bitrate=N/A speed=15.4x    frame=20238 fps=370 q=-0.0 size=N/A time=00:14:04.09 bitrate=N/A speed=15.4x    frame=20436 fps=370 q=-0.0 size=N/A time=00:14:12.35 bitrate=N/A speed=15.4x    frame=20623 fps=370 q=-0.0 size=N/A time=00:14:20.15 bitrate=N/A speed=15.4x    frame=20811 fps=370 q=-0.0 size=N/A time=00:14:27.99 bitrate=N/A speed=15.4x    frame=21008 fps=370 q=-0.0 size=N/A time=00:14:36.20 bitrate=N/A speed=15.4x    frame=21214 fps=370 q=-0.0 size=N/A time=00:14:44.80 bitrate=N/A speed=15.4x    frame=21412 fps=370 q=-0.0 size=N/A time=00:14:53.05 bitrate=N/A speed=15.5x    frame=21616 fps=371 q=-0.0 size=N/A time=00:15:01.56 bitrate=N/A speed=15.5x    frame=21820 fps=371 q=-0.0 size=N/A time=00:15:10.07 bitrate=N/A speed=15.5x    frame=22021 fps=371 q=-0.0 size=N/A time=00:15:18.45 bitrate=N/A speed=15.5x    frame=22226 fps=371 q=-0.0 size=N/A time=00:15:27.00 bitrate=N/A speed=15.5x    frame=22431 fps=372 q=-0.0 size=N/A time=00:15:35.55 bitrate=N/A speed=15.5x    frame=22633 fps=372 q=-0.0 size=N/A time=00:15:43.98 bitrate=N/A speed=15.5x    frame=22822 fps=372 q=-0.0 size=N/A time=00:15:51.86 bitrate=N/A speed=15.5x    frame=23013 fps=372 q=-0.0 size=N/A time=00:15:59.83 bitrate=N/A speed=15.5x    frame=23208 fps=372 q=-0.0 size=N/A time=00:16:07.96 bitrate=N/A speed=15.5x    frame=23403 fps=372 q=-0.0 size=N/A time=00:16:16.10 bitrate=N/A speed=15.5x    frame=23595 fps=372 q=-0.0 size=N/A time=00:16:24.10 bitrate=N/A speed=15.5x    frame=23792 fps=372 q=-0.0 size=N/A time=00:16:32.32 bitrate=N/A speed=15.5x    frame=23993 fps=372 q=-0.0 size=N/A time=00:16:40.70 bitrate=N/A speed=15.5x    frame=24196 fps=372 q=-0.0 size=N/A time=00:16:49.17 bitrate=N/A speed=15.5x    frame=24383 fps=372 q=-0.0 size=N/A time=00:16:56.97 bitrate=N/A speed=15.5x    frame=24592 fps=372 q=-0.0 size=N/A time=00:17:05.69 bitrate=N/A speed=15.5x    frame=24795 fps=372 q=-0.0 size=N/A time=00:17:14.15 bitrate=N/A speed=15.5x    frame=24992 fps=373 q=-0.0 size=N/A time=00:17:22.37 bitrate=N/A speed=15.5x    frame=25188 fps=373 q=-0.0 size=N/A time=00:17:30.54 bitrate=N/A speed=15.5x    frame=25395 fps=373 q=-0.0 size=N/A time=00:17:39.18 bitrate=N/A speed=15.6x    frame=25578 fps=373 q=-0.0 size=N/A time=00:17:46.81 bitrate=N/A speed=15.5x    frame=25772 fps=373 q=-0.0 size=N/A time=00:17:54.90 bitrate=N/A speed=15.5x    frame=25975 fps=373 q=-0.0 size=N/A time=00:18:03.37 bitrate=N/A speed=15.6x    frame=26177 fps=373 q=-0.0 size=N/A time=00:18:11.79 bitrate=N/A speed=15.6x    frame=26382 fps=373 q=-0.0 size=N/A time=00:18:20.34 bitrate=N/A speed=15.6x    frame=26580 fps=373 q=-0.0 size=N/A time=00:18:28.60 bitrate=N/A speed=15.6x    frame=26771 fps=373 q=-0.0 size=N/A time=00:18:36.57 bitrate=N/A speed=15.6x    frame=26966 fps=373 q=-0.0 size=N/A time=00:18:44.70 bitrate=N/A speed=15.6x    frame=27147 fps=373 q=-0.0 size=N/A time=00:18:52.25 bitrate=N/A speed=15.6x    frame=27332 fps=373 q=-0.0 size=N/A time=00:18:59.97 bitrate=N/A speed=15.6x    frame=27521 fps=373 q=-0.0 size=N/A time=00:19:07.85 bitrate=N/A speed=15.6x    frame=27722 fps=373 q=-0.0 size=N/A time=00:19:16.23 bitrate=N/A speed=15.6x    frame=27908 fps=373 q=-0.0 size=N/A time=00:19:23.99 bitrate=N/A speed=15.6x    frame=28097 fps=373 q=-0.0 size=N/A time=00:19:31.87 bitrate=N/A speed=15.6x    frame=28303 fps=373 q=-0.0 size=N/A time=00:19:40.47 bitrate=N/A speed=15.6x    frame=28498 fps=373 q=-0.0 size=N/A time=00:19:48.60 bitrate=N/A speed=15.6x    frame=28702 fps=373 q=-0.0 size=N/A time=00:19:57.11 bitrate=N/A speed=15.6x    frame=28866 fps=373 q=-0.0 size=N/A time=00:20:03.95 bitrate=N/A speed=15.6x    frame=29045 fps=373 q=-0.0 size=N/A time=00:20:11.41 bitrate=N/A speed=15.5x    frame=29231 fps=373 q=-0.0 size=N/A time=00:20:19.17 bitrate=N/A speed=15.5x    frame=29416 fps=373 q=-0.0 size=N/A time=00:20:26.89 bitrate=N/A speed=15.5x    frame=29585 fps=372 q=-0.0 size=N/A time=00:20:33.94 bitrate=N/A speed=15.5x    frame=29770 fps=372 q=-0.0 size=N/A time=00:20:41.65 bitrate=N/A speed=15.5x    frame=29940 fps=372 q=-0.0 size=N/A time=00:20:48.74 bitrate=N/A speed=15.5x    frame=30104 fps=372 q=-0.0 size=N/A time=00:20:55.58 bitrate=N/A speed=15.5x    frame=30303 fps=372 q=-0.0 size=N/A time=00:21:03.88 bitrate=N/A speed=15.5x    frame=30500 fps=372 q=-0.0 size=N/A time=00:21:12.10 bitrate=N/A speed=15.5x    frame=30690 fps=372 q=-0.0 size=N/A time=00:21:20.02 bitrate=N/A speed=15.5x    frame=30895 fps=372 q=-0.0 size=N/A time=00:21:28.57 bitrate=N/A speed=15.5x    frame=31093 fps=372 q=-0.0 size=N/A time=00:21:36.83 bitrate=N/A speed=15.5x    frame=31288 fps=372 q=-0.0 size=N/A time=00:21:44.97 bitrate=N/A speed=15.5x    frame=31481 fps=372 q=-0.0 size=N/A time=00:21:53.02 bitrate=N/A speed=15.5x    frame=31674 fps=372 q=-0.0 size=N/A time=00:22:01.06 bitrate=N/A speed=15.5x    frame=31848 fps=372 q=-0.0 size=N/A time=00:22:08.32 bitrate=N/A speed=15.5x    frame=32035 fps=372 q=-0.0 size=N/A time=00:22:16.12 bitrate=N/A speed=15.5x    frame=32237 fps=372 q=-0.0 size=N/A time=00:22:24.55 bitrate=N/A speed=15.5x    frame=32431 fps=372 q=-0.0 size=N/A time=00:22:32.64 bitrate=N/A speed=15.5x    frame=32624 fps=372 q=-0.0 size=N/A time=00:22:40.69 bitrate=N/A speed=15.5x    frame=32763 fps=371 q=-0.0 size=N/A time=00:22:46.49 bitrate=N/A speed=15.5x    frame=32926 fps=371 q=-0.0 size=N/A time=00:22:53.28 bitrate=N/A speed=15.5x    frame=33118 fps=371 q=-0.0 size=N/A time=00:23:01.29 bitrate=N/A speed=15.5x    frame=33300 fps=371 q=-0.0 size=N/A time=00:23:08.88 bitrate=N/A speed=15.5x    frame=33470 fps=371 q=-0.0 size=N/A time=00:23:15.97 bitrate=N/A speed=15.5x    frame=33629 fps=370 q=-0.0 size=N/A time=00:23:22.60 bitrate=N/A speed=15.4x    frame=33760 fps=370 q=-0.0 size=N/A time=00:23:28.07 bitrate=N/A speed=15.4x    frame=33890 fps=369 q=-0.0 size=N/A time=00:23:33.49 bitrate=N/A speed=15.4x    frame=34047 fps=369 q=-0.0 size=N/A time=00:23:40.04 bitrate=N/A speed=15.4x    frame=34207 fps=368 q=-0.0 size=N/A time=00:23:46.71 bitrate=N/A speed=15.4x    frame=34343 fps=368 q=-0.0 size=N/A time=00:23:52.38 bitrate=N/A speed=15.3x    frame=34484 fps=367 q=-0.0 size=N/A time=00:23:58.27 bitrate=N/A speed=15.3x    frame=34662 fps=367 q=-0.0 size=N/A time=00:24:05.69 bitrate=N/A speed=15.3x    [Parsed_psnr_16 @ 0000020958968000] PSNR y:48.891719 u:50.327895 v:50.377908 average:49.326331 min:37.940218 max:inf
[out#0/null @ 000002094bc2dec0] video:14903KiB audio:271276KiB subtitle:0KiB other streams:0KiB global headers:0KiB muxing overhead: unknown
frame=34683 fps=367 q=-0.0 Lsize=N/A time=00:24:06.57 bitrate=N/A speed=15.3x    
